<svg width="384" height="512" viewBox="0 0 384 512" fill="none" xmlns="http://www.w3.org/2000/svg">
  <path fill-rule="evenodd" clip-rule="evenodd" d="M288.258 395.394C294.584 372.263 282.305 324.71 282.305 324.71C282.305 324.71 273.399 363.449 259.483 377.767C247.611 389.98 233.066 398.451 212.206 400.677C229.261 392.393 240.99 375.12 240.99 355.155C240.99 327.129 217.878 304.409 189.368 304.409C160.858 304.409 137.745 327.129 137.745 355.155C137.745 362.809 139.47 370.068 142.557 376.576C124.725 362.37 121.921 339.594 121.921 339.594C121.921 339.594 102.009 422.264 156.875 461.152C211.74 500.04 319.219 466.614 319.219 466.614C319.219 466.614 165.41 574.837 51.436 457.05C-46.7432 355.584 25.8111 222.003 25.8111 222.003C25.8111 222.003 22.6777 234.395 22.6777 248.78C22.6777 263.165 30.477 274.11 30.477 274.11C30.477 274.11 53.742 225.071 71.848 205.128C88.984 186.254 110.465 170.946 129.019 157.724C143.301 147.546 155.849 138.604 163.343 130.223C204.62 84.0687 179.311 0 179.311 0C179.311 0 225.841 41.02 238.831 93.9978C243.783 114.192 240.597 137.169 237.749 157.716C233.125 191.072 229.388 218.025 262.793 216.276C316.775 213.449 269.866 130.223 269.866 130.223C269.866 130.223 392.318 194.583 383.17 307.145C374.021 419.707 249.324 445.297 249.324 445.297C249.324 445.297 281.931 418.525 288.258 395.394Z" fill="#FFFFFF"/>
</svg>
