<svg width="512" height="404" viewBox="0 0 512 404" fill="none" xmlns="http://www.w3.org/2000/svg">
<path fill-rule="evenodd" clip-rule="evenodd" d="M395.138 190.757C395.109 190.717 395.097 190.667 395.105 190.618L427.769 0.151798C427.784 0.0640982 427.861 0 427.949 0H438.287C438.367 0 438.437 0.0517008 438.461 0.127701L512.051 233.131C512.074 233.203 512.049 233.283 511.989 233.33L457.73 275.693C457.649 275.756 457.532 275.74 457.471 275.657L395.138 190.757ZM-1 317.022C-1 317.101 -0.949204 317.171 -0.874109 317.196L110.975 353.767C111.029 353.785 111.089 353.776 111.136 353.744L361.145 181.144C361.187 181.115 361.215 181.07 361.222 181.02L388.032 1.1284C388.049 1.018 387.963 0.9188 387.852 0.9188H166.406C166.351 0.9188 166.3 0.943001 166.265 0.984901L-0.957974 202.714C-0.98514 202.747 -1 202.788 -1 202.831V317.022ZM157.583 363.085L279.776 403.112C279.831 403.13 279.892 403.121 279.939 403.087L425.418 298.734C425.499 298.677 425.519 298.566 425.464 298.484L370.928 217.329C370.871 217.244 370.757 217.222 370.673 217.28L157.583 363.085Z" fill="#A9756F"/>
</svg>
