<svg width="457" height="494" viewBox="0 0 457 494" fill="none" xmlns="http://www.w3.org/2000/svg">
  <path fill-rule="evenodd" clip-rule="evenodd" d="M73.4121 430.649C71.6547 428.996 69.9167 427.311 68.1989 425.593C-22.4856 334.909 -22.4856 187.88 68.1989 97.1959C158.883 6.51104 447.839 0.444336 447.839 0.444336C447.839 0.444336 487.281 334.909 396.597 425.593C316.057 506.133 191.075 515.143 100.592 452.624L173.5 363.153L290.05 337.99L194.911 328.479L255.373 266.917L324.197 251.84L269.775 235.723L324.197 137.547L246.787 224.375L216.894 182.192L227.417 251.84L173.5 312.622L148.507 235.722V337.99L73.4121 430.649Z" fill="#FFFFFF"/>
</svg>
