<svg width="437" height="512" viewBox="0 0 437 512" fill="none" xmlns="http://www.w3.org/2000/svg">
<path fill-rule="evenodd" clip-rule="evenodd" d="M304.198 0.501279C304.571 -0.0304369 305.303 -0.159658 305.835 0.212654L342.189 25.6682C342.721 26.0405 342.85 26.7733 342.478 27.305L291.879 99.5673C316.478 107.426 333.237 115.903 333.237 115.903C333.237 115.903 292.273 186.365 222.794 186.365C153.315 186.365 103.944 120.693 103.944 120.693C103.944 120.693 121.45 109.521 147.4 99.9391L91.9 33.7976C91.483 33.3003 91.548 32.559 92.045 32.1418L126.042 3.61465C126.54 3.19742 127.281 3.26227 127.698 3.75952L197.97 87.5064C203.987 86.8258 210.117 86.4454 216.303 86.4454C225.194 86.4454 234.074 87.1213 242.743 88.2683L304.198 0.501279ZM317.944 189.702C336.485 176.46 364.541 141.898 364.541 141.898C364.541 141.898 436.205 198.688 436.205 319.104C436.205 439.519 312.309 511.992 312.309 511.992C312.309 511.992 253.114 452.211 238.582 376.43C224.051 300.649 260.078 216.503 260.078 216.503C260.078 216.503 299.402 202.944 317.944 189.702ZM118.261 189.702C99.72 176.46 71.664 141.898 71.664 141.898C71.664 141.898 0 198.688 0 319.104C0 439.519 123.896 511.992 123.896 511.992C123.896 511.992 183.091 452.211 197.623 376.43C212.154 300.649 176.127 216.503 176.127 216.503C176.127 216.503 136.803 202.944 118.261 189.702Z" fill="#A7BD1C"/>
</svg>
