<svg width="512" height="372" viewBox="0 0 512 372" fill="none" xmlns="http://www.w3.org/2000/svg">
  <path fill-rule="evenodd" clip-rule="evenodd" d="M112.764 369.754C112.625 369.754 112.528 369.617 112.574 369.486L243.289 0.134003C243.318 0.0537027 243.394 0 243.479 0H383.021C383.106 0 383.183 0.054103 383.211 0.134903L511.987 369.487C512.032 369.618 511.935 369.754 511.797 369.754H116.692H112.764ZM0.201306 371.199C0.0609122 371.199 -0.0362852 371.059 0.0129607 370.928L97.3526 111.056C97.3821 110.977 97.4571 110.925 97.541 110.925H182.118C182.258 110.925 182.355 111.064 182.307 111.195L88.1823 371.067C88.1535 371.146 88.0779 371.199 87.9932 371.199H0.201306Z" fill="#FFFFFF"/>
</svg>
