<svg width="448" height="512" viewBox="0 0 448 512" fill="none" xmlns="http://www.w3.org/2000/svg">
  <path fill-rule="evenodd" clip-rule="evenodd" d="M248.702 254.881C252.172 252.765 255.116 248.331 257.49 243.403C288.735 256.173 310.692 286.349 310.692 321.54C310.692 368.29 271.942 406.189 224.142 406.189C204.52 406.189 186.423 399.802 171.906 389.039C167.144 386.784 163.226 384.618 160.02 382.845C155.047 380.096 151.786 378.293 149.744 378.575C143.775 379.398 145.508 384.89 147.083 389.879C148.152 393.268 149.149 396.425 147.606 397.727C145.992 399.091 140.764 394.106 134.655 388.282C126.339 380.353 116.391 370.868 111.7 373.717C107.991 375.97 111.592 382.081 116 389.561L116.327 390.116C118.189 393.278 120.347 396.498 122.316 399.436C126.319 405.407 129.543 410.219 127.93 411.033C125.98 412.017 112.394 402.847 100.945 390.116C96.526 385.203 92.246 379.877 88.268 374.928V374.927C79.561 364.093 72.307 355.068 68.235 356.137C63.3365 357.423 67.0421 367.527 72.487 377.25C75.033 381.797 78.028 386.427 80.621 390.436V390.437C84.654 396.671 87.715 401.402 86.605 401.984C85.107 402.767 71.926 389.914 62.9734 373.717C57.6559 364.096 53.1909 353.464 49.5761 344.857C45.656 335.522 42.7359 328.569 40.8131 327.869C34.1325 325.438 34.1325 339.059 36.8119 358.718C37.1614 361.283 37.6819 363.973 38.3228 366.712C64.307 450.785 144.128 512 238.567 512C354.084 512 447.728 420.412 447.728 307.432C447.728 199.9 362.899 111.747 255.12 103.494C255.256 98.4284 257.9 88.383 257.9 88.383C257.9 88.383 276.927 42.3472 277.933 32.5099C277.999 31.857 278.078 31.1475 278.163 30.3919C279.348 19.7629 281.553 0 264.551 0C255.471 0 251.249 6.75464 246.42 14.4799C244.566 17.4456 242.622 20.5545 240.28 23.479C223.412 44.5436 195.048 70.8488 178.965 84.8631C144.971 114.484 111.619 138.828 92.167 153.026L92.166 153.027C83.319 159.484 77.348 163.843 75.5 165.644C61.574 179.22 11.6418 269.286 11.6418 269.286C11.6418 269.286 -4.5057 298.182 1.2338 304.043C6.9733 309.903 20.8141 308.56 20.8141 308.56C20.8141 308.56 206.755 265.903 223.402 262.539C227.884 261.633 231.048 261.11 233.477 260.709C240.072 259.62 241.256 259.424 248.702 254.881ZM117.235 200.064C107.254 209.551 90.701 232.196 90.701 232.196C90.701 232.196 121.465 234.091 138.408 217.986C155.352 201.88 151.47 174.433 151.47 174.433C151.47 174.433 127.215 190.577 117.235 200.064Z" fill="#FFFFFF"/>
</svg>
