<svg width="476" height="512" viewBox="0 0 476 512" fill="none" xmlns="http://www.w3.org/2000/svg">
<path fill-rule="evenodd" clip-rule="evenodd" d="M437.925 425.184C437.925 425.184 373.365 476.963 244.893 455.536C147.423 439.279 95.437 331.833 95.437 274.079C95.437 137.149 196.783 105.988 265.3 105.988C333.816 105.988 378.513 172.788 378.513 224.508C378.513 276.228 341.933 321.466 285.006 321.466C228.08 321.466 211.22 281.501 211.22 244.758C211.22 208.016 240.947 195.071 268.058 195.071C295.169 195.071 304.452 218.217 304.452 238.11C304.452 258.004 289.017 265.128 276.143 265.128C263.269 265.128 261.996 258.633 257.069 251.807C252.141 244.982 263.353 219.146 244.893 219.146C226.433 219.146 222.992 248.847 222.992 248.847C222.992 248.847 229.722 306.18 285.006 305.191C340.291 304.201 366.518 261.461 358.896 219.146C351.274 176.83 310.207 131.865 238.133 140.951C166.059 150.037 136.632 222.861 149.603 300.685C162.574 378.51 255.807 423.602 329.112 407.379C402.418 391.156 475.429 338.086 475.429 203.533C475.429 68.9789 358.896 -11.9002 219.941 1.42914C80.9859 14.7584 -5.271 136.242 0.2502 282.207C5.7714 428.172 144.275 507.669 261.394 511.766C378.513 515.864 450.312 448.067 450.312 448.067C450.312 448.067 466.459 433.668 460.128 422.424C453.798 411.18 437.925 425.184 437.925 425.184Z" fill="#DF608B"/>
</svg>
