<svg width="333" height="512" viewBox="0 0 333 512" fill="none" xmlns="http://www.w3.org/2000/svg">
<path fill-rule="evenodd" clip-rule="evenodd" d="M332.172 346.515C332.172 437.897 257.813 511.977 166.086 511.977C74.359 511.977 0 437.897 0 346.515C0 257.639 157.102 13.5479 165.718 0.22781C165.915 -0.0759385 166.258 -0.0759358 166.454 0.227813C175.07 13.5479 332.172 257.639 332.172 346.515ZM138.4 458.931C54.12 440.49 68.542 347.13 68.542 347.13C68.542 347.13 91.556 403.488 147.405 421.744C203.253 439.999 270.745 413.225 270.745 413.225C270.745 413.225 222.68 477.371 138.4 458.931Z" fill="#75AEF0"/>
</svg>
